<?xml version="1.0" encoding="UTF-8" standalone="no"?>

<svg id="RolledNeckerchiefSVG" version="1.1" width="1000px" viewBox="0 0 615.06009 139.68033"
   inkscape:version="0.92.1 r15371" sodipodi:docname="NeckerchiefHalfRolled - Copy (2) - Copy.svg"
   xmlns:osb="http://www.openswatchbook.org/uri/2009/osb" xmlns:dc="http://purl.org/dc/elements/1.1/" xmlns:cc="http://creativecommons.org/ns#"
   xmlns:rdf="http://www.w3.org/1999/02/22-rdf-syntax-ns#" xmlns:svg="http://www.w3.org/2000/svg" xmlns="http://www.w3.org/2000/svg"
   xmlns:sodipodi="http://sodipodi.sourceforge.net/DTD/sodipodi-0.dtd" xmlns:inkscape="http://www.inkscape.org/namespaces/inkscape">

  <sodipodi:namedview id="base" pagecolor="#ffffff" bordercolor="#666666" borderopacity="1.0"
     inkscape:pageopacity="0.0" inkscape:pageshadow="2" inkscape:zoom="0.25" inkscape:cx="1488.5247" inkscape:cy="123.57145"
     inkscape:document-units="mm" inkscape:current-layer="layer1" showgrid="false" units="mm" inkscape:window-width="1280"
     inkscape:window-height="1001" inkscape:window-x="-8" inkscape:window-y="-8" inkscape:window-maximized="1"
     inkscape:object-nodes="true" inkscape:measure-start="587.5,3122.5" inkscape:measure-end="584.943,3002.67"
     inkscape:snap-intersection-paths="true" inkscape:object-paths="true" fit-margin-top="0" fit-margin-left="0"
     fit-margin-right="0"
     fit-margin-bottom="0" />

  <defs id="defs2">
    <linearGradient id="linearGradient2098" osb:paint="solid">
      <stop id="stop2096" style="stop-color:#0055aa;stop-opacity:1;" offset="0" />
    </linearGradient>
    <pattern id="EMFhbasepattern" y="0" x="0" height="6" width="6" patternUnits="userSpaceOnUse" />
  </defs>

  <metadata id="metadata5">
    <rdf:RDF>
      <cc:Work rdf:about="">
        <dc:format>image/svg+xml</dc:format>
        <dc:type rdf:resource="http://purl.org/dc/dcmitype/StillImage" />
        <dc:title></dc:title>
      </cc:Work>
    </rdf:RDF>
  </metadata>

  <g id="layer1" inkscape:label="Layer 1" inkscape:groupmode="layer" transform="translate(-120.80607,-152.04765)">
    <path id="BackgroundCentre" inkscape:connector-curvature="0" sodipodi:nodetypes="ccccccc"
      style="fill:black;fill-opacity:1;stroke:none;stroke-width:0;stroke-miterlimit:4;stroke-dasharray:none"
      d="m 452.83,152.32832 -24.63157,7e-4 h -24.63207 v 114.81349 l 24.63207,24.58352 24.63157,-24.62744 z" />
    <path id="BackgroundLeft" sodipodi:nodetypes="cccc" inkscape:connector-curvature="0"
      style="fill:black;fill-opacity:1;stroke:none;stroke-width:0;stroke-miterlimit:4;stroke-dasharray:none"
      d="M 428.19832,291.72798 289.07566,152.32832 h 139.12261 z" />
    <path id="BackgroundLeftRoll" inkscape:connector-curvature="0" sodipodi:nodetypes="ccccccccccc"
      style="opacity:1;fill:black;fill-opacity:1;fill-rule:nonzero;stroke:none;stroke-width:0.26458332"
      d="m 161.27181,152.26103 c 1.1485,0.002 0,0 0,0 -16.93039,0.0401 -27.94026,12.49641 -27.94299,12.4995 h -0.005 l -12.50311,12.50053 127.56843,-0.17002 14.44666,-0.002 h 87.16406 V 152.478 l -162.17594,-0.38952 z" />

    <path id="BackgroundRightRoll" inkscape:connector-curvature="0" sodipodi:nodetypes="ccccccccccc"
      style="opacity:1;fill:black;fill-opacity:1;fill-rule:nonzero;stroke:none;stroke-width:0"
      d="m 695.41509,152.22019 c -1.1485,0.002 0,0 0,0 16.9304,0.0401 27.94027,12.4964 27.943,12.49949 h 0.005 l 12.50311,12.50053 -127.56843,-0.17002 -14.44666,-0.002 h -87.16406 v -24.61102 l 162.17594,-0.38952 z" />
    <path id="BackgroundRight" inkscape:connector-curvature="0" sodipodi:nodetypes="cccc"
      style="fill:black;fill-opacity:1;stroke:none;stroke-width:0;stroke-miterlimit:4;stroke-dasharray:none"
      d="M 428.19832,291.72798 565.40176,152.32832 H 428.19829 Z" />


    <path id="Border1Left1" inkscape:connector-curvature="0" sodipodi:nodetypes="ccccccc"
      style="fill:#812b87;fill-opacity:1;stroke:none;stroke-width:0;stroke-miterlimit:4;stroke-dasharray:none"
      d="m 1033.52,1342.8435 c 63.8242,0.099 105.7534,46.7151 105.7534,46.7151 l 479.1211,480.2773 v -54.5761 l -424.5586,-425.7012 c 0,0 -41.6811,-46.6308 -105.7558,-46.7151 z"
      transform="matrix(0.26458333,0,0,0.26458333,0,-202.99998)" />
    <path id="Border2Left1" inkscape:connector-curvature="0" sodipodi:nodetypes="cccccccc"
      style="fill:#fefc58;fill-opacity:1;stroke:none;stroke-width:0;stroke-miterlimit:4;stroke-dasharray:none"
      d="m 1088.0801,1342.8435 c 63.8242,0.099 105.7558,46.7151 105.7558,46.7151 h -1.1191 l 425.6777,425.7012 v -54.5703 l -369.998,-371.1309 c 0,0 -41.6734,-46.6308 -105.7481,-46.7151 z"
      transform="matrix(0.26458333,0,0,0.26458333,0,-202.99998)" />

    <path id="Border1Left2" inkscape:connector-curvature="0"
      style="opacity:1;fill:#812b87;fill-opacity:1;fill-rule:nonzero;stroke:none;stroke-width:0"
      d="m 815.5,1342.5664 c 63.82416,0.099 105.75586,47.2441 105.75586,47.2441 0,0 41.67334,47.1599 105.74804,47.2442 h 54.5664 c -63.8241,-0.099 -105.75389,-47.2442 -105.75389,-47.2442 0,0 -41.67533,-47.1598 -105.75,-47.2441 z"
      transform="matrix(0.26458333,0,0,0.26458333,0,-202.99998)" />
    <path id="Border2Left2" inkscape:connector-curvature="0"
      style="opacity:1;fill:#fefc58;fill-opacity:1;fill-rule:nonzero;stroke:none;stroke-width:0"
      d="m 870.06055,1342.5664 c 63.82416,0.099 105.75586,47.2441 105.75586,47.2441 0,0 41.67529,47.1598 105.74999,47.2442 h 54.5664 c -63.8241,-0.099 -105.7558,-47.2442 -105.7558,-47.2442 0,0 -41.67342,-47.1598 -105.74809,-47.2441 z"
      transform="matrix(0.26458333,0,0,0.26458333,0,-202.99998)" />

    <path id="Border2Left3" inkscape:connector-curvature="0"
      style="fill:#fefc58;fill-opacity:1;stroke:none;stroke-width:0;stroke-miterlimit:4;stroke-dasharray:none"
      d="m 651.35156,1342.0645 c 4.3468,0.01 8.58731,0.2388 12.72461,0.6523 -64.0069,0.1429 -105.6289,47.2422 -105.6289,47.2422 h -0.0312 l -47.25586,47.2441 54.60351,0.01 47.24414,-47.2519 c 0,0 28.09026,-31.5733 73.27735,-43.0957 43.7458,12.0139 70.82031,42.4453 70.82031,42.4453 0,0 41.67334,47.1598 105.74805,47.2441 h 54.5664 c -63.8242,-0.099 -105.7539,-47.2441 -105.7539,-47.2441 h 0.002 c 0,0 -36.19159,-40.9424 -92.96875,-46.5938 0,-2e-4 -0.0117,3e-4 -0.0117,0 -4.15151,-0.4129 -8.40816,-0.6446 -12.77344,-0.6503 z"
      transform="matrix(0.26458333,0,0,0.26458333,0,-202.99998)" />
    <path id="Border1Left3" inkscape:connector-curvature="0" sodipodi:nodetypes="ccccccccccccccccccc"
      style="fill:#812b87;fill-opacity:1;stroke:none;stroke-width:0;stroke-miterlimit:4;stroke-dasharray:none"
      d="m 609.53125,1342.7188 c 4.34684,0.01 0,0 0,0 -63.9989,0.1428 -105.61664,47.2285 -105.62695,47.2402 h -0.0605 l -47.25391,47.2441 54.60352,0.01 47.24219,-47.25 h 0.0273 c 0,0 28.09041,-31.5732 73.27734,-43.0957 43.74592,12.014 70.82032,42.4453 70.82032,42.4453 h -0.01 c 0,0 41.67533,47.1599 105.75,47.2442 h 54.56641 c -63.82417,-0.099 -105.75391,-47.2442 -105.75391,-47.2442 h 0.01 c 0,0 -36.19156,-40.9424 -92.96875,-46.5937 0,-3e-4 -3.8e-4,3e-4 -0.0117,0 -4.15007,-0.413 -8.40609,-0.6446 -12.77149,-0.6504 z"
      transform="matrix(0.26458333,0,0,0.26458333,0,-202.99998)" />



    <path id="Border1Right1" inkscape:connector-curvature="0"
      style="fill:#812b87;fill-opacity:1;stroke:none;stroke-width:0;stroke-miterlimit:4;stroke-dasharray:none"
      d="m 2149.6074,1342.5645 c -63.0869,0.083 -104.2511,45.5845 -105.5117,46.9941 h -0.01 l -425.6914,425.7012 v 54.5761 l 480.0254,-480.0273 c 0,0 41.9317,-47.1447 105.7559,-47.2441 z"
      transform="matrix(0.26458333,0,0,0.26458333,0,-202.99998)" />
    <path id="Border2Right1" inkscape:connector-curvature="0" sodipodi:nodetypes="ccccccc"
      style="fill:#fefc58;fill-opacity:1;stroke:none;stroke-width:0;stroke-miterlimit:4;stroke-dasharray:none"
      d="m 2095.2734,1342.3145 c -64.0746,0.084 -105.75,47.2441 -105.75,47.2441 l -371.1289,371.1309 v 54.5703 l 425.6914,-425.7012 c 0,0 41.6973,-46.8947 105.5215,-46.9941 z"
      transform="matrix(0.26458333,0,0,0.26458333,0,-202.99998)" />

    <path id="Border1Right2" inkscape:connector-curvature="0" sodipodi:nodetypes="ccccccccc"
      style="opacity:1;fill:#812b87;fill-opacity:1;fill-rule:nonzero;stroke:none;stroke-width:0"
      d="m 2367.6211,1342.0687 c -63.0864,0.083 -104.2505,46.3355 -105.5117,47.7458 h -0.01 c 0,0 -41.9318,47.1447 -105.7558,47.2441 h 54.5683 c 63.0864,-0.083 104.2505,-45.5839 105.5117,-46.9941 h 0.01 c 0,0 41.9317,-47.8964 105.7559,-47.9958 z"
      transform="matrix(0.26458333,0,0,0.26458333,0,-202.99998)" />
    <path id="Border2Right2" inkscape:connector-curvature="0" sodipodi:nodetypes="ccccccc"
      style="opacity:1;fill:#fefc58;fill-opacity:1;fill-rule:nonzero;stroke:none;stroke-width:0"
      d="m 2313.2871,1342.0687 c -64.0747,0.084 -105.75,47.7458 -105.75,47.7458 0,0 -41.9298,47.1447 -105.7539,47.2441 h 54.5664 c 64.0747,-0.084 105.75,-47.2441 105.75,-47.2441 0,0 41.9298,-47.6464 105.7539,-47.7458 z"
      transform="matrix(0.26458333,0,0,0.26458333,0,-202.99998)" />

    <path id="Border2Right3" inkscape:connector-curvature="0"
      style="fill:#fefc58;fill-opacity:1;stroke:none;stroke-width:0;stroke-miterlimit:4;stroke-dasharray:none"
      d="m 2532,1342.0684 c -4.3654,0.01 -8.6219,0.2374 -12.7734,0.6504 0,2e-4 -0.012,-3e-4 -0.012,0 -56.7771,5.6513 -92.9687,46.5937 -92.9687,46.5937 0,0 -41.9298,47.1447 -105.7539,47.2441 h 54.5664 c 64.0747,-0.084 105.75,-47.2441 105.75,-47.2441 0,0 27.0745,-30.4314 70.8203,-42.4453 45.1871,11.5224 73.2773,43.0957 73.2773,43.0957 h 0.018 l 47.0957,47.1035 54.6035,-0.01 -47.2558,-47.2441 h -0.041 c -0.7557,-0.8491 -42.0691,-46.9522 -105.4883,-47.0938 4.1373,-0.4135 8.3778,-0.6448 12.7246,-0.6523 z"
      transform="matrix(0.26458333,0,0,0.26458333,0,-202.99998)" />
    <path id="Border1Right3" inkscape:connector-curvature="0"
      style="fill:#812b87;fill-opacity:1;stroke:none;stroke-width:0;stroke-miterlimit:4;stroke-dasharray:none"
      d="m 2586.541,1342.0703 c -4.3654,0.01 -8.6233,0.2375 -12.7734,0.6504 0,3e-4 0,-3e-4 -0.01,0 -56.7772,5.6513 -92.9688,46.5938 -92.9688,46.5938 h 0.016 c -0.01,0.012 -41.9356,47.1428 -105.7519,47.2421 h 54.5664 c 64.0747,-0.084 105.75,-47.2441 105.75,-47.2441 h -0.016 c 0.01,-0.012 27.0807,-30.4317 70.8183,-42.4434 45.187,11.5225 73.2774,43.0957 73.2774,43.0957 h 0.084 l 47.0878,47.0938 54.6036,-0.01 -47.2559,-47.2441 h -0.1074 c -0.796,-0.894 -42.0931,-46.9445 -105.4805,-47.0859 z"
      transform="matrix(0.26458333,0,0,0.26458333,0,-202.99998)" />


    <path id="BackStripeFull" inkscape:connector-curvature="0" sodipodi:nodetypes="ccccccc"
      style="fill:transparent;fill-opacity:1;stroke:none;stroke-width:0;stroke-miterlimit:4;stroke-dasharray:none"
      d="m 452.83,152.32832 -24.63157,7e-4 h -24.63207 v 114.81349 l 24.63207,24.58352 24.63157,-24.62744 z" />
    <path id="BackStripeLeft" inkscape:connector-curvature="0" sodipodi:nodetypes="cccccc"
      d="m 428.19829,152.32832 v 139.39731 0 L 403.566,267.14202 v -114.813 z"
      style="fill:transparent;fill-opacity:1;stroke:none;stroke-width:0;stroke-miterlimit:4;stroke-dasharray:none" />
    <path id="BackStripeRight" inkscape:connector-curvature="0" sodipodi:nodetypes="cccccc"
      style="fill:transparent;fill-opacity:1;stroke:none;stroke-width:0;stroke-miterlimit:4;stroke-dasharray:none"
      d="m 428.19833,152.32832 -4e-5,139.39731 v 0 L 452.83,267.09788 V 152.32802 Z" />
  </g>
</svg>

